<svg width="1143" height="1018" viewBox="0 0 1143 1018" fill="brown"
    xmlns="http://www.w3.org/2000/svg">
    <path d="M356.61 359.411C346.79 369.231 330.87 369.231 321.05 359.411C311.23 349.591 311.23 333.671 321.05 323.851C325.05 319.851 330.07 317.481 335.27 316.731L331.71 291.851C321.31 293.321 311.27 298.071 303.28 306.071C283.64 325.711 283.64 357.551 303.28 377.191C322.92 396.831 354.76 396.831 374.4 377.191C382.4 369.191 387.15 359.161 388.62 348.761L363.74 345.201C362.99 350.401 360.62 355.421 356.62 359.421L356.61 359.411Z" fill="#372E2C"/>
    <path d="M413.49 352.3C411.29 367.91 404.17 382.96 392.16 394.96C372.34 414.78 344.25 421.27 319.02 414.42C321.33 423.06 322.72 431.95 323.15 440.96C353.81 445.81 386.29 436.4 409.94 412.74C425.96 396.72 435.42 376.67 438.4 355.85L413.48 352.29L413.49 352.3Z" fill="#372E2C"/>
    <path d="M214.37 466.09C224.19 456.271 224.19 440.351 214.37 430.531C204.55 420.711 188.63 420.711 178.81 430.531C170.28 439.061 143.25 466.09 143.25 466.09L125.47 448.311C125.47 448.311 145.3 428.471 161.02 412.751C180.66 393.111 212.5 393.111 232.14 412.751C251.78 432.391 251.78 464.23 232.14 483.87C225.09 490.92 197.56 518.451 178.92 537.081L267.71 625.87L249.93 643.651L161.14 554.86L143.36 537.081C143.36 537.081 204.5 475.941 214.35 466.09H214.37Z" fill="#372E2C"/>
    <path d="M251.1 500.29C278.07 473.32 280.35 431 257.92 401.44C228.66 362.06 231.89 306.15 267.61 270.43C283.62 254.42 303.68 244.94 324.5 241.98L328.06 266.88C312.45 269.09 297.4 276.2 285.4 288.21C258.59 315.02 256.18 356.98 278.17 386.52C307.87 425.92 304.78 482.191 268.89 518.081L249.85 537.12L303.17 590.461L285.39 608.24L214.29 537.12L251.11 500.3L251.1 500.29Z" fill="#372E2C"/>
    <path d="M481.15 483.959C471.33 493.779 455.41 493.779 445.59 483.959C435.77 474.139 435.77 458.219 445.59 448.399C449.59 444.399 454.61 442.029 459.81 441.279L456.25 416.399C445.85 417.869 435.81 422.619 427.82 430.619C408.18 450.259 408.18 482.099 427.82 501.739C447.46 521.379 479.3 521.379 498.94 501.739C506.94 493.739 511.69 483.709 513.16 473.309L488.28 469.749C487.53 474.949 485.16 479.969 481.16 483.969L481.15 483.959Z" fill="#372E2C"/>
    <path d="M538.03 476.85C535.83 492.46 528.71 507.51 516.7 519.51C496.88 539.33 468.79 545.82 443.56 538.97C445.87 547.61 447.26 556.5 447.69 565.51C478.35 570.36 510.83 560.95 534.48 537.29C550.5 521.27 559.96 501.22 562.94 480.4L538.02 476.84L538.03 476.85Z" fill="#372E2C"/>
    <path d="M338.92 590.639C348.74 580.819 348.74 564.899 338.92 555.079C329.1 545.259 313.18 545.259 303.36 555.079C294.83 563.609 267.8 590.639 267.8 590.639L250.02 572.859C250.02 572.859 269.85 553.019 285.57 537.299C305.21 517.659 337.05 517.659 356.69 537.299C376.33 556.939 376.33 588.779 356.69 608.419C349.64 615.469 322.11 642.999 303.47 661.629L392.26 750.419L374.48 768.199L285.69 679.409L267.91 661.629C267.91 661.629 329.05 600.489 338.9 590.639H338.92Z" fill="#372E2C"/>
    <path d="M375.64 624.83C402.61 597.86 404.89 555.54 382.46 525.98C353.2 486.6 356.43 430.69 392.15 394.97C408.16 378.96 428.22 369.48 449.04 366.52L452.6 391.42C436.99 393.63 421.94 400.74 409.94 412.75C383.13 439.56 380.72 481.52 402.71 511.06C432.41 550.46 429.32 606.73 393.43 642.62L374.39 661.66L427.71 715L409.93 732.78L338.83 661.66L375.65 624.84L375.64 624.83Z" fill="#372E2C"/>
    <path d="M470.62 362.94L474.18 387.82C484.58 386.35 494.62 381.6 502.61 373.6C522.25 353.96 522.25 322.12 502.61 302.48C482.97 282.84 451.13 282.84 431.49 302.48C423.49 310.48 418.74 320.51 417.27 330.91L442.15 334.47C442.9 329.27 445.27 324.25 449.27 320.25C459.09 310.43 475.01 310.43 484.83 320.25C494.65 330.07 494.65 345.99 484.83 355.81C480.83 359.81 475.81 362.18 470.61 362.93L470.62 362.94Z" fill="#372E2C"/>
    <path d="M481.28 437.63C502.1 434.65 522.15 425.18 538.17 409.17C561.82 385.52 571.24 353.04 566.39 322.38C557.38 321.95 548.49 320.56 539.85 318.25C546.7 343.49 540.22 371.57 520.39 391.39C508.39 403.39 493.34 410.52 477.73 412.72L481.29 437.64L481.28 437.63Z" fill="#372E2C"/>
    <path d="M591.51 213.59C581.69 223.41 565.77 223.41 555.95 213.59C546.13 203.77 546.13 187.85 555.95 178.03C564.48 169.5 591.51 142.47 591.51 142.47L573.73 124.69C573.73 124.69 553.89 144.52 538.17 160.24C518.53 179.88 518.53 211.72 538.17 231.36C557.81 251 589.65 251 609.29 231.36C616.34 224.31 643.87 196.78 662.5 178.14L751.29 266.93L769.07 249.15L680.28 160.36L662.5 142.58C662.5 142.58 601.36 203.72 591.51 213.57V213.59Z" fill="#372E2C"/>
    <path d="M662.53 213.49L733.65 284.59L715.87 302.37L662.53 249.05L643.49 268.09C607.6 303.98 551.34 307.07 511.93 277.37C482.39 255.38 440.43 257.79 413.62 284.6C401.61 296.61 394.5 311.65 392.29 327.26L367.39 323.7C370.35 302.89 379.83 282.82 395.84 266.81C431.56 231.09 487.48 227.85 526.85 257.12C556.41 279.55 598.73 277.27 625.7 250.3L662.52 213.48L662.53 213.49Z" fill="#372E2C"/>
    <path d="M595.16 487.49L598.72 512.37C609.12 510.9 619.16 506.15 627.15 498.15C646.79 478.51 646.79 446.67 627.15 427.03C607.51 407.39 575.67 407.39 556.03 427.03C548.03 435.03 543.28 445.06 541.81 455.46L566.69 459.02C567.44 453.82 569.81 448.8 573.81 444.8C583.63 434.98 599.55 434.98 609.37 444.8C619.19 454.62 619.19 470.54 609.37 480.36C605.37 484.36 600.35 486.73 595.15 487.48L595.16 487.49Z" fill="#372E2C"/>
    <path d="M605.83 562.17C626.65 559.19 646.7 549.72 662.72 533.71C686.37 510.06 695.79 477.58 690.94 446.92C681.93 446.49 673.04 445.1 664.4 442.79C671.25 468.03 664.77 496.11 644.94 515.93C632.94 527.93 617.89 535.06 602.28 537.26L605.84 562.18L605.83 562.17Z" fill="#372E2C"/>
    <path d="M716.06 338.14C706.24 347.96 690.32 347.96 680.5 338.14C670.68 328.32 670.68 312.4 680.5 302.58C689.03 294.05 716.06 267.02 716.06 267.02L698.28 249.24C698.28 249.24 678.44 269.07 662.72 284.79C643.08 304.43 643.08 336.27 662.72 355.91C682.36 375.55 714.2 375.55 733.84 355.91C740.89 348.86 768.42 321.33 787.05 302.69L875.84 391.48L893.62 373.7L804.83 284.91L787.05 267.13C787.05 267.13 725.91 328.27 716.06 338.12V338.14Z" fill="#372E2C"/>
    <path d="M787.08 338.04L858.2 409.14L840.42 426.92L787.08 373.6L768.04 392.64C732.15 428.53 675.89 431.62 636.48 401.92C606.94 379.93 564.98 382.34 538.17 409.15C526.16 421.16 519.05 436.2 516.84 451.81L491.94 448.25C494.9 427.44 504.38 407.37 520.39 391.36C556.11 355.64 612.03 352.4 651.4 381.67C680.96 404.1 723.28 401.82 750.25 374.85L787.07 338.03L787.08 338.04Z" fill="#372E2C"/>
    <path d="M232.06 234.86C222.24 244.68 206.32 244.68 196.5 234.86C186.68 225.04 186.68 209.12 196.5 199.3C200.5 195.3 205.52 192.93 210.72 192.18L207.16 167.3C196.76 168.77 186.72 173.52 178.73 181.52C159.09 201.16 159.09 233 178.73 252.64C198.37 272.28 230.21 272.28 249.85 252.64C257.85 244.64 262.6 234.61 264.07 224.21L239.19 220.65C238.44 225.85 236.07 230.87 232.07 234.87L232.06 234.86Z" fill="#372E2C"/>
    <path d="M288.94 227.749C286.74 243.359 279.62 258.409 267.61 270.409C247.79 290.229 219.7 296.719 194.47 289.869C196.78 298.509 198.17 307.399 198.6 316.409C229.26 321.259 261.74 311.849 285.39 288.189C301.41 272.169 310.87 252.119 313.85 231.299L288.93 227.739L288.94 227.749Z" fill="#372E2C"/>
    <path d="M89.82 341.54C99.64 331.72 99.64 315.8 89.82 305.98C80 296.16 64.08 296.16 54.26 305.98C45.73 314.51 18.7 341.54 18.7 341.54L0.919983 323.76C0.919983 323.76 20.75 303.92 36.47 288.2C56.11 268.56 87.95 268.56 107.59 288.2C127.23 307.84 127.23 339.68 107.59 359.32C100.54 366.37 73.01 393.9 54.37 412.53L143.16 501.32L125.38 519.1L36.59 430.31L18.81 412.53C18.81 412.53 79.95 351.39 89.8 341.54H89.82Z" fill="#372E2C"/>
    <path d="M126.55 375.74C153.52 348.77 155.8 306.45 133.37 276.89C104.11 237.51 107.34 181.6 143.06 145.88C159.07 129.87 179.13 120.39 199.95 117.43L203.51 142.33C187.9 144.54 172.85 151.65 160.85 163.66C134.04 190.47 131.63 232.43 153.62 261.97C183.32 301.37 180.23 357.64 144.34 393.53L125.3 412.57L178.62 465.91L160.84 483.69L89.74 412.57L126.56 375.75L126.55 375.74Z" fill="#372E2C"/>
    <path d="M730.25 733.05C720.43 742.87 704.51 742.87 694.69 733.05C684.87 723.23 684.87 707.31 694.69 697.49C698.69 693.49 703.71 691.12 708.91 690.37L705.35 665.49C694.95 666.96 684.91 671.71 676.92 679.71C657.28 699.35 657.28 731.19 676.92 750.83C696.56 770.47 728.4 770.47 748.04 750.83C756.04 742.83 760.79 732.8 762.26 722.4L737.38 718.84C736.63 724.04 734.26 729.06 730.26 733.06L730.25 733.05Z" fill="#372E2C"/>
    <path d="M787.13 725.94C784.93 741.55 777.81 756.6 765.8 768.6C745.98 788.42 717.89 794.91 692.66 788.06C694.97 796.7 696.36 805.59 696.79 814.6C727.45 819.45 759.93 810.04 783.58 786.38C799.6 770.36 809.06 750.31 812.04 729.49L787.12 725.93L787.13 725.94Z" fill="#372E2C"/>
    <path d="M588.01 839.73C597.83 829.91 597.83 813.99 588.01 804.17C578.19 794.35 562.27 794.35 552.45 804.17C543.92 812.7 516.89 839.73 516.89 839.73L499.11 821.95C499.11 821.95 518.94 802.11 534.66 786.39C554.3 766.75 586.14 766.75 605.78 786.39C625.42 806.03 625.42 837.87 605.78 857.51C598.73 864.56 571.2 892.09 552.56 910.72L641.35 999.51L623.57 1017.29L534.78 928.5L517 910.72C517 910.72 578.14 849.58 587.99 839.73H588.01Z" fill="#372E2C"/>
    <path d="M624.74 873.93C651.71 846.96 653.99 804.64 631.56 775.08C602.3 735.7 605.53 679.79 641.25 644.07C657.26 628.06 677.32 618.58 698.14 615.62L701.7 640.52C686.09 642.73 671.04 649.84 659.04 661.85C632.23 688.66 629.82 730.62 651.81 760.16C681.51 799.56 678.42 855.83 642.53 891.72L623.49 910.76L676.81 964.1L659.03 981.88L587.93 910.76L624.75 873.94L624.74 873.93Z" fill="#372E2C"/>
    <path d="M844.26 736.58L847.82 761.46C858.22 759.99 868.26 755.24 876.25 747.24C895.89 727.6 895.89 695.76 876.25 676.12C856.61 656.48 824.77 656.48 805.13 676.12C797.13 684.12 792.38 694.15 790.91 704.55L815.79 708.11C816.54 702.91 818.91 697.89 822.91 693.89C832.73 684.07 848.65 684.07 858.47 693.89C868.29 703.71 868.29 719.63 858.47 729.45C854.47 733.45 849.45 735.82 844.25 736.57L844.26 736.58Z" fill="#372E2C"/>
    <path d="M854.92 811.27C875.74 808.29 895.79 798.82 911.81 782.81C935.46 759.16 944.88 726.68 940.03 696.02C931.02 695.59 922.13 694.2 913.49 691.89C920.34 717.13 913.86 745.21 894.03 765.03C882.03 777.03 866.98 784.16 851.37 786.36L854.93 811.28L854.92 811.27Z" fill="#372E2C"/>
    <path d="M965.15 587.23C955.33 597.05 939.41 597.05 929.59 587.23C919.77 577.41 919.77 561.49 929.59 551.67C938.12 543.14 965.15 516.11 965.15 516.11L947.37 498.33C947.37 498.33 927.53 518.16 911.81 533.88C892.17 553.52 892.17 585.36 911.81 605C931.45 624.64 963.29 624.64 982.93 605C989.98 597.95 1017.51 570.42 1036.14 551.78L1124.93 640.57L1142.71 622.79L1053.92 534L1036.14 516.22C1036.14 516.22 975 577.36 965.15 587.21V587.23Z" fill="#372E2C"/>
    <path d="M1036.17 587.13L1107.29 658.23L1089.51 676.01L1036.17 622.69L1017.13 641.73C981.24 677.62 924.98 680.71 885.57 651.01C856.03 629.02 814.07 631.43 787.26 658.24C775.25 670.25 768.14 685.29 765.93 700.9L741.03 697.34C743.99 676.53 753.47 656.46 769.48 640.45C805.2 604.73 861.12 601.49 900.49 630.76C930.05 653.19 972.37 650.91 999.34 623.94L1036.16 587.12L1036.17 587.13Z" fill="#372E2C"/>
    <path d="M605.7 608.5C595.88 618.32 579.96 618.32 570.14 608.5C560.32 598.68 560.32 582.76 570.14 572.94C574.14 568.94 579.16 566.57 584.36 565.82L580.8 540.94C570.4 542.41 560.36 547.16 552.37 555.16C532.73 574.8 532.73 606.64 552.37 626.28C572.01 645.92 603.85 645.92 623.49 626.28C631.49 618.28 636.24 608.25 637.71 597.85L612.83 594.29C612.08 599.49 609.71 604.51 605.71 608.51L605.7 608.5Z" fill="#372E2C"/>
    <path d="M662.58 601.39C660.38 617 653.26 632.05 641.25 644.05C621.43 663.87 593.34 670.36 568.11 663.51C570.42 672.15 571.81 681.04 572.24 690.05C602.9 694.9 635.38 685.49 659.03 661.83C675.05 645.81 684.51 625.76 687.49 604.94L662.57 601.38L662.58 601.39Z" fill="#372E2C"/>
    <path d="M463.46 715.18C473.28 705.36 473.28 689.44 463.46 679.62C453.64 669.8 437.72 669.8 427.9 679.62C419.37 688.15 392.34 715.18 392.34 715.18L374.56 697.4C374.56 697.4 394.39 677.56 410.11 661.84C429.75 642.2 461.59 642.2 481.23 661.84C500.87 681.48 500.87 713.32 481.23 732.96C474.18 740.01 446.65 767.54 428.01 786.17L516.8 874.96L499.02 892.74L410.23 803.95L392.45 786.17C392.45 786.17 453.59 725.03 463.44 715.18H463.46Z" fill="#372E2C"/>
    <path d="M500.19 749.38C527.16 722.41 529.44 680.09 507.01 650.53C477.75 611.15 480.98 555.24 516.7 519.52C532.71 503.51 552.77 494.03 573.59 491.07L577.15 515.97C561.54 518.18 546.49 525.29 534.49 537.3C507.68 564.11 505.27 606.07 527.26 635.61C556.96 675.01 553.87 731.28 517.98 767.17L498.94 786.21L552.26 839.55L534.48 857.33L463.38 786.21L500.2 749.39L500.19 749.38Z" fill="#372E2C"/>
    <path d="M719.71 612.041L723.27 636.921C733.67 635.451 743.71 630.701 751.7 622.701C771.34 603.061 771.34 571.221 751.7 551.581C732.06 531.941 700.22 531.941 680.58 551.581C672.58 559.581 667.83 569.611 666.36 580.011L691.24 583.571C691.99 578.371 694.36 573.351 698.36 569.351C708.18 559.531 724.1 559.531 733.92 569.351C743.74 579.171 743.74 595.091 733.92 604.911C729.92 608.911 724.9 611.281 719.7 612.031L719.71 612.041Z" fill="#372E2C"/>
    <path d="M730.38 686.72C751.2 683.74 771.25 674.27 787.27 658.26C810.92 634.61 820.34 602.13 815.49 571.47C806.48 571.04 797.59 569.65 788.95 567.34C795.8 592.58 789.32 620.66 769.49 640.48C757.49 652.48 742.44 659.61 726.83 661.81L730.39 686.73L730.38 686.72Z" fill="#372E2C"/>
    <path d="M840.61 462.68C830.79 472.5 814.87 472.5 805.05 462.68C795.23 452.86 795.23 436.94 805.05 427.12C813.58 418.59 840.61 391.56 840.61 391.56L822.83 373.78C822.83 373.78 802.99 393.61 787.27 409.33C767.63 428.97 767.63 460.81 787.27 480.45C806.91 500.09 838.75 500.09 858.39 480.45C865.44 473.4 892.97 445.87 911.6 427.23L1000.39 516.02L1018.17 498.24L929.38 409.45L911.6 391.67C911.6 391.67 850.46 452.81 840.61 462.66V462.68Z" fill="#372E2C"/>
    <path d="M911.63 462.59L982.75 533.69L964.97 551.47L911.63 498.15L892.59 517.19C856.7 553.08 800.44 556.17 761.03 526.47C731.49 504.48 689.53 506.89 662.72 533.7C650.71 545.71 643.6 560.75 641.39 576.36L616.49 572.8C619.45 551.99 628.93 531.92 644.94 515.91C680.66 480.19 736.58 476.95 775.95 506.22C805.51 528.65 847.83 526.37 874.8 499.4L911.62 462.58L911.63 462.59Z" fill="#372E2C"/>
    <path d="M346.07 238.4L349.63 263.28C360.03 261.81 370.07 257.06 378.06 249.06C397.7 229.42 397.7 197.58 378.06 177.94C358.42 158.3 326.58 158.3 306.94 177.94C298.94 185.94 294.19 195.97 292.72 206.37L317.6 209.93C318.35 204.73 320.72 199.71 324.72 195.71C334.54 185.89 350.46 185.89 360.28 195.71C370.1 205.53 370.1 221.45 360.28 231.27C356.28 235.27 351.26 237.64 346.06 238.39L346.07 238.4Z" fill="#372E2C"/>
    <path d="M356.74 313.079C377.56 310.099 397.61 300.629 413.63 284.619C437.28 260.969 446.7 228.489 441.85 197.829C432.84 197.399 423.95 196.009 415.31 193.699C422.16 218.939 415.68 247.019 395.85 266.839C383.85 278.839 368.8 285.969 353.19 288.169L356.75 313.089L356.74 313.079Z" fill="#372E2C"/>
    <path d="M466.97 89.0396C457.15 98.8596 441.23 98.8596 431.41 89.0396C421.59 79.2197 421.59 63.2996 431.41 53.4796C439.94 44.9496 466.97 17.9196 466.97 17.9196L449.19 0.139648C449.19 0.139648 429.35 19.9696 413.63 35.6896C393.99 55.3296 393.99 87.1696 413.63 106.81C433.27 126.45 465.11 126.45 484.75 106.81C491.8 99.7596 519.33 72.2296 537.96 53.5896L626.75 142.38L644.53 124.6L555.74 35.8097L537.96 18.0296C537.96 18.0296 476.82 79.1696 466.97 89.0196V89.0396Z" fill="#372E2C"/>
    <path d="M537.99 88.9494L609.11 160.049L591.33 177.829L537.99 124.509L518.95 143.549C483.06 179.439 426.8 182.529 387.39 152.829C357.85 130.839 315.89 133.249 289.08 160.059C277.07 172.069 269.96 187.109 267.75 202.719L242.85 199.159C245.81 178.349 255.29 158.279 271.3 142.269C307.02 106.549 362.94 103.309 402.31 132.579C431.87 155.009 474.19 152.729 501.16 125.759L537.98 88.9395L537.99 88.9494Z" fill="#372E2C"/>
</svg>